<?xml version="1.0" encoding="UTF-8" standalone="no"?>
<!-- Created with Inkscape (http://www.inkscape.org/) -->

<svg
   version="1.1"
   id="svg5961"
   xml:space="preserve"
   width="1066.6667"
   height="1066.6667"
   viewBox="0 0 1066.6667 1066.6667"
   sodipodi:docname="tennis-ball-pubicdomainvectors.org.svg"
   inkscape:version="1.1.2 (b8e25be833, 2022-02-05)"
   xmlns:inkscape="http://www.inkscape.org/namespaces/inkscape"
   xmlns:sodipodi="http://sodipodi.sourceforge.net/DTD/sodipodi-0.dtd"
   xmlns="http://www.w3.org/2000/svg"
   xmlns:svg="http://www.w3.org/2000/svg"><defs
     id="defs5965"><clipPath
       clipPathUnits="userSpaceOnUse"
       id="clipPath5975"><path
         d="M 0,800 H 800 V 0 H 0 Z"
         id="path5973" /></clipPath></defs><sodipodi:namedview
     id="namedview5963"
     pagecolor="#ffffff"
     bordercolor="#666666"
     borderopacity="1.0"
     inkscape:pageshadow="2"
     inkscape:pageopacity="0.0"
     inkscape:pagecheckerboard="0"
     showgrid="false"
     inkscape:zoom="0.77906244"
     inkscape:cx="533.33337"
     inkscape:cy="533.33337"
     inkscape:window-width="1920"
     inkscape:window-height="1018"
     inkscape:window-x="-8"
     inkscape:window-y="-8"
     inkscape:window-maximized="1"
     inkscape:current-layer="g5967" /><g
     id="g5967"
     inkscape:groupmode="layer"
     inkscape:label="tennis-ball-pubicdomainvectors.org"
     transform="matrix(1.3333333,0,0,-1.3333333,0,1066.6667)"><g
       id="g5969"><g
         id="g5971"
         clip-path="url(#clipPath5975)"><path
           d="M 0.022,-1.737 H 801.589 V 799.831 H 0.022 Z"
           style="fill:#373d16;fill-opacity:1;fill-rule:evenodd;stroke:none"
           id="path5977" /><path
           d="m 248.499,691.313 c -71.55,-33.69 -124.667,-90.664 -154.585,-157.616 11.252,-95.698 84.572,-153.65 149.67,-205.09 86.475,-68.33 160.454,-126.792 97.297,-239.254 58.78,-8.069 120.488,0.205 178.166,27.363 57.68,27.157 103.37,69.452 134.596,119.901 -126.922,22.964 -124.856,117.231 -122.436,227.418 1.821,82.949 3.861,176.384 -62.737,246.022 -70.667,19.591 -148.421,14.944 -219.971,-18.744 m 47.52,-592.47 c -84.775,24.41 -159.011,83.81 -199.545,169.897 -28.528,60.589 -36.218,125.626 -26.011,187.042 31.11,-70.194 91.319,-117.78 146.244,-161.18 72.547,-57.326 134.268,-106.109 79.312,-195.759 m 247.45,579.654 c 53.843,-31.258 99.074,-78.618 127.602,-139.209 40.534,-86.086 39.029,-181.149 3.836,-262.046 -104.112,14.752 -102.396,93.406 -100.366,185.846 1.537,69.986 3.215,146.711 -31.072,215.409"
           style="fill:#f0c000;fill-opacity:1;fill-rule:evenodd;stroke:none"
           id="path5979" /><path
           d="m 97.852,542.166 c -1.353,-2.805 -2.668,-5.627 -3.938,-8.469 11.252,-95.698 84.572,-153.65 149.67,-205.09 86.475,-68.33 160.454,-126.792 97.297,-239.254 2.715,-0.374 5.437,-0.711 8.165,-1.013 19.701,36.033 30.489,75.344 17.288,115.73 -8.722,26.685 -26.376,49.318 -45.911,69.023 -22.104,22.297 -47.49,42.053 -72.105,61.503 -36.09,28.518 -73.156,57.82 -101.612,94.319 -18.133,23.254 -32.057,48.714 -39.767,77.287 l -1.775,6.577 z M 289.511,102.833 c 15.203,24.8 25.278,52.693 16.915,81.71 -5.853,20.307 -19.632,37.799 -34.225,52.646 -18.338,18.654 -39.715,35.215 -60.227,51.422 -55.653,43.976 -111.353,89.019 -143.483,153.451 0.559,4.59 1.215,9.165 1.972,13.72 31.11,-70.194 91.319,-117.78 146.244,-161.18 72.547,-57.326 134.268,-106.109 79.312,-195.759 -2.528,0.728 -5.047,1.488 -7.556,2.277 z m 359.712,126.846 c 1.506,2.296 2.978,4.608 4.42,6.938 -126.922,22.964 -124.856,117.231 -122.436,227.418 1.821,82.949 3.861,176.384 -62.737,246.022 -3.591,0.996 -7.201,1.925 -10.827,2.795 l 19.801,-24.815 3.937,-5.557 c 26.238,-37.031 37.043,-80.155 40.87,-124.725 2.67,-31.108 2.008,-62.377 1.324,-93.553 -0.688,-31.365 -1.633,-63.521 1.473,-94.763 2.743,-27.61 8.941,-55.635 23.954,-79.358 22.722,-35.905 59.893,-52.634 100.221,-60.402 M 543.469,678.497 c 3.992,-2.318 7.935,-4.726 11.83,-7.221 29.198,-65.813 28.431,-137.442 26.875,-208.356 -0.574,-26.136 -1.428,-53.165 1.268,-79.182 2.147,-20.709 6.853,-42.473 18.779,-59.921 17.038,-24.93 44.956,-34.935 73.757,-39.015 l 1.986,-0.283 c -0.988,-2.438 -2.007,-4.863 -3.057,-7.277 -104.112,14.752 -102.396,93.406 -100.366,185.846 1.537,69.986 3.215,146.711 -31.072,215.409"
           style="fill:#e6b800;fill-opacity:1;fill-rule:evenodd;stroke:none"
           id="path5981" /><path
           d="m 296.019,98.843 c -84.775,24.41 -159.011,83.81 -199.545,169.897 -28.528,60.589 -36.218,125.626 -26.011,187.042 31.11,-70.194 91.319,-117.78 146.244,-161.18 72.547,-57.326 134.268,-106.109 79.312,-195.759 m 301.752,156.32 c -70.294,38.223 -68.557,118.148 -66.564,208.872 1.821,82.949 3.861,176.384 -62.737,246.022 -70.667,19.591 -148.421,14.944 -219.971,-18.744 -71.55,-33.69 -124.667,-90.664 -154.585,-157.616 11.252,-95.698 84.572,-153.65 149.67,-205.09 83.775,-66.198 155.825,-123.133 102.812,-228.881 36.242,4.512 72.399,14.722 107.236,31.126 60.719,28.588 109.549,72.2 144.139,124.311 m -54.302,423.334 c 24.708,-14.344 47.6,-32.081 67.9,-52.93 4.217,-7.5 8.206,-15.195 11.929,-23.102 47.692,-101.29 43.231,-213.711 -2.443,-307.006 -49.294,31.453 -47.902,95.323 -46.314,167.629 1.537,69.986 3.215,146.711 -31.072,215.409"
           style="fill:#ffcc00;fill-opacity:1;fill-rule:evenodd;stroke:none"
           id="path5983" /><path
           d="m 97.852,542.166 c -1.353,-2.805 -2.668,-5.627 -3.938,-8.469 11.252,-95.698 84.572,-153.65 149.67,-205.09 83.775,-66.198 155.825,-123.133 102.812,-228.881 3.038,0.378 6.074,0.796 9.11,1.254 15.416,32.508 22.502,67.379 10.828,103.09 -8.722,26.685 -26.376,49.318 -45.911,69.023 -22.104,22.297 -47.49,42.053 -72.105,61.503 -36.09,28.518 -73.156,57.82 -101.612,94.319 -18.133,23.254 -32.057,48.714 -39.767,77.287 l -1.775,6.577 z M 289.511,102.833 c 15.203,24.8 25.278,52.693 16.915,81.71 -5.853,20.307 -19.632,37.799 -34.225,52.646 -18.338,18.654 -39.715,35.215 -60.227,51.422 -55.653,43.976 -111.353,89.019 -143.483,153.451 0.559,4.59 1.215,9.165 1.972,13.72 31.11,-70.194 91.319,-117.78 146.244,-161.18 72.547,-57.326 134.268,-106.109 79.312,-195.759 -2.528,0.728 -5.047,1.488 -7.556,2.277 z m 303.938,145.975 c 1.464,2.104 2.905,4.221 4.322,6.355 -70.294,38.223 -68.557,118.148 -66.564,208.872 1.821,82.949 3.861,176.384 -62.737,246.022 -3.591,0.996 -7.201,1.925 -10.827,2.795 l 19.801,-24.815 3.937,-5.557 c 26.238,-37.031 37.043,-80.155 40.87,-124.725 2.67,-31.108 2.008,-62.377 1.324,-93.553 -0.688,-31.365 -1.633,-63.521 1.473,-94.763 2.743,-27.61 8.941,-55.635 23.954,-79.358 11.566,-18.279 26.88,-31.586 44.447,-41.273 m -49.98,429.689 c 3.992,-2.318 7.935,-4.724 11.829,-7.217 29.199,-65.816 28.432,-137.445 26.876,-208.36 -0.574,-26.136 -1.428,-53.165 1.268,-79.182 2.147,-20.709 6.853,-42.473 18.779,-59.921 6.079,-8.896 13.546,-15.889 21.941,-21.394 -1.079,-2.332 -2.178,-4.655 -3.307,-6.964 -49.294,31.453 -47.902,95.323 -46.314,167.629 1.537,69.986 3.215,146.711 -31.072,215.409"
           style="fill:#f7c600;fill-opacity:1;fill-rule:evenodd;stroke:none"
           id="path5985" /><path
           d="M 140.547,555.057 C 196.195,639.458 293.73,675.068 358.4,634.594 423.069,594.12 430.384,492.889 374.736,408.488 319.088,324.086 221.552,288.476 156.881,328.951 92.213,369.424 84.898,470.655 140.547,555.057"
           style="fill:#ffdd54;fill-opacity:1;fill-rule:evenodd;stroke:none"
           id="path5987" /><path
           d="m 265.858,320.715 c -32.626,-11.163 -65.839,-11.598 -94.373,0.614 -18.752,15.755 -36.819,32.174 -53.229,50.009 -17.283,33.396 -19.847,76.955 -7.004,120.977 8.105,-23.023 20.312,-43.98 35.454,-63.4 28.456,-36.499 65.522,-65.801 101.612,-94.319 5.821,-4.599 11.686,-9.215 17.54,-13.881"
           style="fill:#ffd52e;fill-opacity:1;fill-rule:evenodd;stroke:none"
           id="path5989" /><path
           d="m 99.569,504.213 c 21.197,-78.553 85.886,-129.673 144.015,-175.606 86.475,-68.33 160.454,-126.791 97.297,-239.254 -10.621,23.856 -33.531,21.679 -44.86,9.49 54.954,89.65 -6.767,138.433 -79.314,195.759 -54.932,43.405 -115.149,90.998 -146.256,161.206 20.555,3.85 29.994,24.105 29.118,48.405 m 388.042,182.681 c 47.03,-66.378 45.223,-148.798 43.596,-222.859 -2.419,-110.187 -4.486,-204.454 122.436,-227.418 -11.623,23.384 4.653,39.657 21.264,40.625 -104.112,14.752 -102.396,93.406 -100.366,185.846 1.537,69.995 3.215,146.731 -31.086,215.436 -16.057,-13.391 -37.675,-7.774 -55.844,8.37"
           style="fill:#f7edc6;fill-opacity:1;fill-rule:evenodd;stroke:none"
           id="path5991" /><path
           d="m 334.171,464.303 c 8.716,4.105 19.109,0.365 23.214,-8.352 4.103,-8.716 0.365,-19.11 -8.351,-23.213 -8.718,-4.104 -19.11,-0.365 -23.215,8.352 -4.105,8.716 -0.364,19.108 8.352,23.213 m -22.55,106.088 c 23.397,11.017 51.294,0.98 62.31,-22.417 11.016,-23.398 0.982,-51.295 -22.416,-62.311 -23.399,-11.017 -51.296,-0.981 -62.312,22.416 -11.017,23.397 -0.981,51.295 22.418,62.312"
           style="fill:#ffeda6;fill-opacity:1;fill-rule:evenodd;stroke:none"
           id="path5993" /><path
           d="m 312.478,107.498 c 45.289,86.996 -17.524,136.655 -90.801,194.557 -53.901,42.591 -112.613,89 -147.048,154.81 -1.338,-0.429 -2.73,-0.786 -4.178,-1.057 31.107,-70.208 91.324,-117.801 146.256,-161.206 72.547,-57.326 134.268,-106.109 79.314,-195.759 4.268,4.592 10.176,7.761 16.457,8.655 m 32.487,-10.543 c -1.299,-2.511 -2.644,-5.038 -4.084,-7.602 -3.31,7.434 -7.814,12.34 -12.786,15.203 5.892,-0.318 11.815,-2.65 16.87,-7.601 m 329.122,180.227 c 0.274,0.024 0.546,0.045 0.82,0.06 -0.19,0.029 -0.371,0.06 -0.561,0.087 z M 487.611,686.894 c 47.03,-66.378 45.223,-148.798 43.596,-222.859 -2.419,-110.187 -4.486,-204.454 122.436,-227.418 -0.732,1.473 -1.353,2.919 -1.871,4.333 -120.907,28.288 -118.797,125.1 -116.325,237.627 1.391,63.424 2.906,132.65 -23.017,193.955 -8.431,2.352 -16.95,7.368 -24.819,14.362"
           style="fill:#ebdc9f;fill-opacity:1;fill-rule:evenodd;stroke:none"
           id="path5995" /></g></g></g></svg>
